<svg version="1.1" id="Layer_1" xmlns="http://www.w3.org/2000/svg" xmlns:xlink="http://www.w3.org/1999/xlink" x="0px" y="0px"
	 width="12em" viewBox="0 0 180 150" enable-background="new 0 0 270 186" xml:space="preserve">
<path fill="#237003" opacity="1.000000" stroke="none" 
	d="
M134.084076,136.172272 
	C123.350815,128.121017 115.275536,118.133217 112.030739,105.061081 
	C107.575043,87.110588 111.689583,70.568016 121.620613,54.975143 
	C124.012932,57.313557 124.394135,60.488789 125.369125,63.442024 
	C128.831940,73.930862 131.360962,84.753380 136.652191,95.027786 
	C139.532242,101.230988 137.839172,107.216026 137.433746,113.593140 
	C137.534775,117.561661 137.457825,121.083252 136.639053,124.997986 
	C136.121246,128.985275 136.914093,132.776962 134.084076,136.172272 
z"/>
<path fill="#206202" opacity="1.000000" stroke="none" 
	d="
M136.332794,114.252846 
	C135.993866,107.953598 138.168991,101.902878 136.003769,95.427032 
	C133.992096,91.242447 134.309113,87.272934 135.097046,82.850754 
	C136.215088,80.737740 137.829956,79.749260 139.571960,79.428253 
	C145.491959,78.337341 151.368591,76.937538 157.770721,76.763496 
	C162.121628,87.794182 161.130524,98.560730 157.755951,109.657417 
	C157.057602,110.859383 156.698959,111.797554 156.341873,113.022812 
	C156.370163,113.322441 156.078613,113.158401 156.226715,113.245453 
	C149.790970,113.535973 143.444183,117.737144 136.332794,114.252846 
z"/>
<path fill="#2C7801" opacity="1.000000" stroke="none" 
	d="
M136.291382,81.616974 
	C136.007339,86.027313 136.004578,90.050987 136.001511,94.537933 
	C135.150818,94.886894 134.423874,94.644180 134.085434,93.711639 
	C129.538361,81.182541 125.005203,68.649643 121.946564,55.224537 
	C124.722572,48.680656 130.612289,45.215946 134.642288,40.132820 
	C136.081818,38.317104 136.075500,41.036713 136.895874,41.724205 
	C138.074661,49.719627 137.341064,57.464367 137.469452,65.658142 
	C137.293777,71.169640 138.396484,76.286514 136.291382,81.616974 
z"/>
<path fill="#226904" opacity="1.000000" stroke="none" 
	d="
M136.392029,81.958847 
	C136.008102,76.980873 136.006119,71.958099 136.006119,66.468582 
	C141.124969,63.160122 146.646378,62.998154 152.666016,63.753967 
	C153.057068,63.961899 152.991882,63.973885 153.019241,63.954800 
	C153.679672,64.717453 153.308990,65.767693 154.106171,66.636948 
	C154.453445,66.675461 154.246658,67.017296 154.332840,66.837097 
	C154.282608,67.358215 154.459900,68.000961 155.100906,68.741287 
	C156.331604,71.325119 157.246155,73.783813 158.150345,76.618332 
	C151.287354,79.803886 143.567322,78.846794 136.392029,81.958847 
z"/>
<path fill="#1D5D02" opacity="1.000000" stroke="none" 
	d="
M136.006439,114.449051 
	C140.248123,113.541458 144.668732,116.063713 148.850647,112.491112 
	C150.027374,111.485847 153.237274,112.860550 155.944702,113.238068 
	C153.116653,122.297104 147.224823,129.254501 139.503967,135.191467 
	C135.019318,133.249756 136.349228,129.044281 135.242508,125.376106 
	C136.164917,121.746819 136.058365,118.317978 136.006439,114.449051 
z"/>
<path fill="#226E03" opacity="1.000000" stroke="none" 
	d="
M153.032288,63.608871 
	C147.661041,64.641342 142.265015,65.320793 136.438553,66.001038 
	C136.120621,58.210369 136.233139,50.418903 136.628448,42.324165 
	C142.161270,49.186676 149.234222,54.970680 153.032288,63.608871 
z"/>
<path fill="#4A4B0A" opacity="1.000000" stroke="none" 
	d="
M135.022400,125.496674 
	C137.330002,127.834099 136.610153,131.823578 139.020691,134.977295 
	C137.564407,139.064529 138.015991,143.042725 137.839615,146.950272 
	C137.796982,147.894821 137.939499,149.054062 136.461838,149.029633 
	C135.107330,149.007263 134.968460,148.013245 135.002396,146.978348 
	C135.111115,143.663467 134.440414,140.450043 133.734589,136.825119 
	C134.569550,132.977203 135.344437,129.527069 135.022400,125.496674 
z"/>
<path fill="#1D5D02" opacity="1.000000" stroke="none" 
	d="
M156.614914,113.131683 
	C156.084991,112.198326 155.631531,111.043724 157.262085,110.104950 
	C157.346237,110.981956 157.102951,111.961441 156.614914,113.131683 
z"/>
<path fill="#226E03" opacity="1.000000" stroke="none" 
	d="
M154.381287,66.367386 
	C153.142609,66.594185 153.051041,65.650658 153.037018,64.297386 
	C153.467438,64.643585 153.888275,65.351456 154.381287,66.367386 
z"/>
<path fill="#226E03" opacity="1.000000" stroke="none" 
	d="
M155.353943,68.560028 
	C154.639877,68.662872 154.207764,68.189346 154.327209,67.006516 
	C154.709641,67.189148 155.000244,67.721390 155.353943,68.560028 
z"/>
</svg>