<svg version="1.1" id="Layer_1" xmlns="http://www.w3.org/2000/svg" xmlnsXlink="http://www.w3.org/1999/xlink" x="0px" y="0px"
 viewBox="0 0 318 159" enableBackground="new 0 0 318 159" xmlSpace="preserve">
<path fill="#FBF5EB" opacity="1.000000" stroke="none" 
	d="
M217.000000,160.000000 
	C146.000015,160.000000 75.499954,159.968246 5.000201,160.096420 
	C1.575691,160.102646 0.892820,159.425125 0.902465,155.999756 
	C1.044193,105.666824 1.044185,55.333248 0.902475,5.000319 
	C0.892832,1.575107 1.575910,0.900631 5.000063,0.904516 
	C108.333252,1.021778 211.666626,1.021772 314.999786,0.904535 
	C318.423676,0.900650 319.107178,1.574701 319.097534,5.000192 
	C318.955780,55.333118 318.955841,105.666687 319.097534,155.999619 
	C319.107178,159.424713 318.426788,160.117035 314.999573,160.099426 
	C282.500397,159.932541 250.000031,160.000000 217.000000,160.000000 
z"/>
<path fill="#29D46A" opacity="1.000000" stroke="none" 
	d="
M64.345779,102.682419 
	C57.059566,99.375359 50.295982,101.873016 43.587975,103.873566 
	C42.349220,101.920273 43.691536,100.426964 44.127403,98.989861 
	C45.638218,94.008614 45.963654,89.491684 44.147163,84.166412 
	C39.487362,70.505592 47.722656,55.743061 61.517467,51.348598 
	C75.058434,47.034992 89.905014,54.229111 94.775421,67.486549 
	C95.231262,68.727379 95.531700,70.025307 95.877762,71.677002 
	C95.256149,73.152840 95.499283,74.307632 95.832413,75.721436 
	C96.135704,76.544090 96.217834,77.098457 96.168518,77.829407 
	C95.274345,78.689484 95.526314,79.576462 95.725235,80.692413 
	C94.086815,92.811035 86.771523,99.594193 75.331055,102.903564 
	C74.489998,102.476593 73.961029,102.479156 73.201874,102.827957 
	C71.252792,103.751923 69.465034,103.829170 67.336037,103.220093 
	C66.367371,102.278099 65.474342,102.529472 64.345779,102.682419 
z"/>
<path fill="#2AD469" opacity="1.000000" stroke="none" 
	d="
M112.129028,67.732727 
	C113.196022,72.167580 114.192596,76.195953 115.528084,81.594315 
	C116.974106,76.057892 118.071152,71.739189 119.239349,67.439812 
	C119.748642,65.565407 119.986404,63.689396 122.964569,63.906040 
	C125.488487,64.089630 125.845871,65.361893 126.301498,67.286423 
	C127.269249,71.374176 128.459808,75.409172 130.599152,79.424026 
	C131.679764,75.185570 133.030396,70.992622 133.754913,66.694153 
	C134.326904,63.300690 136.589966,63.767941 138.567322,64.155174 
	C141.383911,64.706772 139.201523,66.616440 138.957031,67.639076 
	C137.491898,73.767654 135.701813,79.817741 134.163605,85.930099 
	C133.578003,88.257133 132.647720,89.963371 129.986572,90.016396 
	C127.018356,90.075546 126.658134,87.702835 126.103401,85.656792 
	C125.076248,81.868324 124.178444,78.044777 122.334335,74.271988 
	C121.262550,78.497231 120.057945,82.694969 119.174919,86.959305 
	C118.732643,89.095131 118.003899,90.107628 115.635849,90.106087 
	C113.229080,90.104515 112.199173,89.408592 111.638290,86.910973 
	C110.220024,80.595528 108.329681,74.387451 106.745270,68.106888 
	C106.413445,66.791542 104.511627,64.844627 107.272995,64.134598 
	C109.732590,63.502163 112.023026,63.933163 112.129028,67.732727 
z"/>
<path fill="#27D368" opacity="1.000000" stroke="none" 
	d="
M219.292938,83.870384 
	C218.024887,87.604332 216.647720,90.480736 211.721878,88.427505 
	C214.552109,80.942810 217.433090,73.444939 220.207855,65.907959 
	C220.984589,63.798183 222.597580,64.144737 224.234344,63.984753 
	C226.277908,63.785007 227.199875,64.732880 227.849472,66.492989 
	C230.194305,72.846214 232.683029,79.147209 234.948288,85.527954 
	C235.294952,86.504440 237.005310,88.274574 235.040176,88.766312 
	C233.534607,89.143044 231.065887,90.411209 229.893814,87.692406 
	C229.435822,86.630028 229.008102,85.554604 228.283249,84.237427 
	C225.226791,82.984474 222.373138,83.643517 219.292938,83.870384 
z"/>
<path fill="#2AD46A" opacity="1.000000" stroke="none" 
	d="
M237.585510,73.982208 
	C237.354294,70.479332 240.014420,70.596474 241.200027,71.372696 
	C243.472763,72.860664 245.991241,72.046036 247.606812,71.606133 
	C251.512268,70.542717 253.778702,72.020493 255.370193,74.896912 
	C257.702301,79.111839 257.654785,83.542343 254.740570,87.544861 
	C252.657501,90.405807 249.630585,91.005981 246.291321,90.114532 
	C245.355988,89.864838 244.452164,89.497086 243.440140,89.151459 
	C242.299438,90.842430 242.922531,92.677971 242.860260,94.389557 
	C242.773102,96.784546 241.121307,96.907944 239.440536,96.999878 
	C237.413788,97.110748 237.570755,95.619308 237.572845,94.272987 
	C237.583115,87.644798 237.588333,81.016609 237.585510,73.982208 
z"/>
<path fill="#28D469" opacity="1.000000" stroke="none" 
	d="
M266.840759,71.773178 
	C268.292908,71.912392 269.433990,71.987114 270.679565,71.107925 
	C271.320648,71.368034 271.643677,71.608574 272.292114,71.823730 
	C272.594666,71.829330 272.823029,71.756554 272.905823,71.843216 
	C273.205200,72.218590 273.449707,72.481026 273.991089,72.765671 
	C274.255737,72.818275 274.138977,72.859093 274.143799,72.797440 
	C274.226288,73.137276 274.425262,73.460892 275.046387,73.787842 
	C275.608673,74.231789 275.888733,74.582603 276.169556,75.170509 
	C277.260010,78.643761 277.214447,81.912109 276.277771,85.667801 
	C276.107605,86.134705 276.064850,86.055046 276.109833,86.059456 
	C275.804871,86.237251 275.505127,86.475166 275.292114,87.055397 
	C275.335358,87.341881 275.188446,87.066170 275.283234,87.190323 
	C274.921661,87.246788 274.546906,87.383232 274.336670,88.076721 
	C274.405792,88.395081 274.311340,88.408661 274.340332,88.370766 
	C273.917206,88.235641 273.563110,88.379562 273.219177,89.072021 
	C270.937744,90.906830 268.615417,90.532829 266.024597,89.624924 
	C265.707886,89.181000 265.638367,88.955811 265.743683,88.424416 
	C267.112640,86.514221 269.025177,85.601646 270.090698,83.898865 
	C271.441650,81.739937 271.655640,79.508507 269.815399,77.500908 
	C268.794647,76.387306 267.407837,76.266144 266.210297,77.164207 
	C264.121338,78.730797 264.323212,80.841194 265.150330,82.995094 
	C265.621979,84.223297 266.474548,85.303986 266.511566,87.025131 
	C266.183868,87.762703 265.892090,88.132195 265.291382,88.690750 
	C262.036469,89.905746 264.022461,92.424889 263.342438,94.535202 
	C263.116638,95.356590 262.867065,95.737137 262.234497,96.236427 
	C261.516357,96.467941 261.096954,96.525482 260.368896,96.496643 
	C259.532288,96.207664 259.065430,95.922096 258.616272,95.192719 
	C258.419281,87.967110 258.393738,80.988304 258.251770,74.011871 
	C258.208099,71.866844 258.967010,70.878838 261.558716,71.267944 
	C263.409821,72.413918 264.931702,72.469109 266.840759,71.773178 
z"/>
<path fill="#2CD46B" opacity="1.000000" stroke="none" 
	d="
M142.332123,89.686966 
	C140.023376,81.887993 141.620026,73.818329 141.246475,65.816177 
	C141.153931,63.833374 142.829391,64.109184 144.136307,64.038345 
	C145.495972,63.964653 146.413651,64.361618 146.410538,65.918488 
	C146.408875,66.749916 146.482239,67.584084 146.436859,68.412369 
	C146.286224,71.162735 146.361633,72.142273 150.132980,71.421890 
	C157.235291,70.065254 159.026230,72.327011 159.069931,80.112564 
	C159.084854,82.773918 159.055435,85.435516 158.972702,88.559021 
	C155.633041,90.331970 154.257507,89.283028 154.472214,85.730827 
	C154.632324,83.082100 154.586334,80.410782 154.174988,77.384293 
	C152.583328,75.249611 150.870911,74.384224 148.738113,75.270454 
	C146.740051,76.100708 146.633209,78.111229 146.401596,79.903168 
	C145.979172,83.171539 146.918762,86.521713 145.414978,89.851723 
	C144.277573,89.289330 143.424637,89.527985 142.332123,89.686966 
z"/>
<path fill="#27D368" opacity="1.000000" stroke="none" 
	d="
M208.533829,76.842552 
	C206.145676,77.325050 205.381943,75.388985 203.982101,74.660851 
	C202.378128,73.826530 200.381363,73.637688 199.549393,75.351578 
	C198.600082,77.307159 200.598038,77.792274 202.016586,78.013733 
	C203.403275,78.230225 204.348038,79.267456 206.011429,79.256554 
	C208.578415,79.239716 210.767975,80.802071 211.012100,83.833977 
	C211.264206,86.965050 209.603317,89.002396 206.780457,89.817581 
	C203.005081,90.907829 199.174347,90.970177 195.763626,88.565460 
	C194.854645,87.924591 193.686859,86.947777 194.242004,85.698631 
	C194.809692,84.421272 196.301605,85.089149 197.379303,85.031998 
	C197.944946,85.002014 198.655075,85.327713 199.095764,85.721375 
	C200.971161,87.396667 202.963486,87.508156 205.004211,86.209763 
	C205.448441,85.927124 205.925980,84.939384 205.754623,84.571541 
	C204.766083,82.449486 202.545349,82.529747 200.671265,81.997269 
	C197.989899,81.235428 194.869934,81.010651 194.069733,77.570381 
	C193.574158,75.439796 194.269012,72.866867 196.184601,72.472954 
	C199.663681,71.757530 203.242004,69.876892 206.937881,71.686829 
	C208.799484,72.598495 210.420410,73.779411 210.090057,76.202370 
	C210.054443,76.463646 209.304169,76.627487 208.533829,76.842552 
z"/>
<path fill="#28D468" opacity="1.000000" stroke="none" 
	d="
M175.013428,89.254997 
	C174.224243,89.062141 173.874649,89.023781 173.259766,88.973068 
	C172.469818,88.227165 172.662643,87.433128 172.869232,86.358932 
	C172.996674,85.892342 173.054169,85.710632 173.191406,85.267929 
	C173.331131,84.644981 173.260757,84.307220 172.861389,83.807281 
	C168.662323,82.647011 168.076950,84.338936 169.469788,87.988518 
	C168.217590,90.585800 166.364792,89.956184 164.143127,89.360924 
	C163.746597,89.270584 163.824417,89.188202 163.841095,89.242355 
	C163.755432,88.842262 163.516769,88.482803 162.785248,88.181122 
	C160.889328,82.310921 161.915955,80.483994 167.413193,79.354340 
	C168.225159,79.187492 169.057144,79.115845 169.881134,79.010086 
	C171.493958,78.803070 173.355911,78.988266 173.860672,76.842720 
	C174.069229,75.956268 173.570602,75.233879 172.808487,74.763466 
	C171.186050,73.762024 169.636963,74.013222 168.195404,75.144951 
	C167.809937,75.447563 167.549423,75.904274 167.184875,76.239502 
	C165.750626,77.558434 163.564362,77.567101 162.672058,76.543831 
	C161.292542,74.961830 163.153061,73.570045 164.378204,72.596138 
	C167.833084,69.849739 175.686050,70.849472 178.875656,74.686516 
	C178.054840,78.780296 178.577927,82.564186 178.529770,86.322289 
	C178.501328,88.541008 177.967239,89.857086 175.013428,89.254997 
z"/>
<path fill="#2ED46B" opacity="1.000000" stroke="none" 
	d="
M184.143951,75.313766 
	C182.714340,74.678696 180.980316,75.475540 180.690765,73.484108 
	C180.492706,72.121956 181.076675,71.295967 182.544510,71.147408 
	C183.925308,71.007660 183.906708,69.880089 183.864227,68.908600 
	C183.779831,66.979248 184.982849,66.831757 186.439270,66.827965 
	C187.892868,66.824181 189.115234,66.970657 189.017319,68.888985 
	C188.952133,70.165833 189.229355,71.175461 190.859955,71.156479 
	C191.932007,71.143997 192.812088,71.512550 192.853470,72.819763 
	C192.891586,74.023712 192.313049,74.661446 191.118439,74.745628 
	C187.714737,74.985504 188.897064,77.714249 189.117813,79.247452 
	C189.458237,81.611626 186.943268,85.140030 191.303131,86.167816 
	C192.909927,86.546577 192.923386,87.546188 192.806686,88.754295 
	C192.671951,90.149216 191.570023,90.138191 190.605484,90.120239 
	C188.175278,90.075035 185.499893,90.604446 184.098236,87.342369 
	C184.961121,83.195084 184.360031,79.388115 184.143951,75.313766 
z"/>
<path fill="#23D468" opacity="1.000000" stroke="none" 
	d="
M173.589371,84.853363 
	C173.726685,86.062767 173.508270,87.192444 173.142181,88.641426 
	C170.243484,91.123489 167.262787,90.993858 163.963226,89.557236 
	C165.356720,88.573181 167.461990,89.791992 168.892822,87.617828 
	C169.900330,85.563560 171.628036,85.272209 173.589371,84.853363 
z"/>
<path fill="#07D15C" opacity="1.000000" stroke="none" 
	d="
M174.801514,89.421448 
	C177.050919,89.184593 178.095383,88.088356 178.033859,85.520142 
	C177.955246,82.237862 178.221252,78.947342 178.610107,75.353180 
	C178.953232,78.843849 178.739304,82.674973 179.176605,86.430260 
	C179.619568,90.234299 178.000626,90.631104 174.801514,89.421448 
z"/>
<path fill="#07D15C" opacity="1.000000" stroke="none" 
	d="
M153.906693,77.481621 
	C156.112686,79.468819 154.735550,82.421829 154.954468,85.130386 
	C155.130371,87.306976 155.124298,89.228745 158.487686,89.001114 
	C154.368637,90.889969 154.011032,90.697533 153.948120,86.246635 
	C153.909027,83.480042 153.918289,80.712776 153.906693,77.481621 
z"/>
<path fill="#2ED46B" opacity="1.000000" stroke="none" 
	d="
M276.389130,85.891769 
	C276.101135,82.893753 276.094696,79.652809 276.129272,75.909729 
	C278.422821,78.719444 277.845398,82.169548 276.389130,85.891769 
z"/>
<path fill="#01D15C" opacity="1.000000" stroke="none" 
	d="
M183.876877,75.484207 
	C186.138443,78.664062 184.789337,82.557037 184.372940,86.661682 
	C184.030243,83.286278 183.964996,79.614204 183.876877,75.484207 
z"/>
<path fill="#01D15C" opacity="1.000000" stroke="none" 
	d="
M219.479279,84.146179 
	C221.670868,82.043678 224.586578,83.074806 227.721039,83.705559 
	C225.308960,84.037354 222.618027,84.084969 219.479279,84.146179 
z"/>
<path fill="#43D778" opacity="1.000000" stroke="none" 
	d="
M266.989624,71.628189 
	C265.512543,72.344498 263.878662,74.237778 262.073822,71.647293 
	C263.572723,72.163582 265.193115,71.708794 266.989624,71.628189 
z"/>
<path fill="#07D15C" opacity="1.000000" stroke="none" 
	d="
M96.114685,75.597549 
	C94.685066,75.052101 94.846901,73.816483 95.613525,72.283333 
	C95.959419,73.106651 96.067612,74.156021 96.114685,75.597549 
z"/>
<path fill="#43D778" opacity="1.000000" stroke="none" 
	d="
M262.160431,96.518158 
	C262.225464,95.987137 262.515137,95.563881 263.043396,95.030701 
	C263.795563,95.916557 263.465027,96.468323 262.160431,96.518158 
z"/>
<path fill="#43D778" opacity="1.000000" stroke="none" 
	d="
M258.402618,95.231613 
	C258.965454,95.288788 259.441284,95.632584 259.988647,96.193314 
	C259.134949,96.785225 258.554169,96.486382 258.402618,95.231613 
z"/>
<path fill="#07D15C" opacity="1.000000" stroke="none" 
	d="
M95.984482,80.602829 
	C94.907448,80.213150 94.819153,79.333054 95.782562,78.173439 
	C96.048645,78.750374 96.060211,79.494759 95.984482,80.602829 
z"/>
<path fill="#07D15C" opacity="1.000000" stroke="none" 
	d="
M64.421173,102.920181 
	C64.851044,101.890770 65.733498,101.822884 66.864044,102.812988 
	C66.282288,103.049431 65.533974,103.031578 64.421173,102.920181 
z"/>
<path fill="#11D260" opacity="1.000000" stroke="none" 
	d="
M142.410858,89.931778 
	C142.802414,88.918167 143.669312,88.836082 144.808533,89.702179 
	C144.242020,89.973145 143.504547,90.002747 142.410858,89.931778 
z"/>
<path fill="#07D15C" opacity="1.000000" stroke="none" 
	d="
M73.325172,103.055069 
	C73.375282,102.316429 73.875221,101.979851 74.802986,102.669312 
	C74.522835,102.951401 74.088493,103.023956 73.325172,103.055069 
z"/>
<path fill="#43D778" opacity="1.000000" stroke="none" 
	d="
M265.990417,87.901962 
	C266.127319,88.007950 266.047150,88.284927 265.872162,88.984039 
	C265.777374,89.406181 265.324799,89.251900 265.164612,89.074471 
	C265.260712,88.622345 265.517029,88.347649 265.990417,87.901962 
z"/>
<path fill="#2ED46B" opacity="1.000000" stroke="none" 
	d="
M273.400269,89.283066 
	C273.341614,89.052940 273.551819,88.726402 274.065674,88.366364 
	C274.135925,88.617462 273.902557,88.902054 273.400269,89.283066 
z"/>
<path fill="#23D468" opacity="1.000000" stroke="none" 
	d="
M162.600266,88.413002 
	C162.837036,88.313683 163.222702,88.498962 163.733063,88.990372 
	C163.488235,89.096870 163.118698,88.897232 162.600266,88.413002 
z"/>
<path fill="#2ED46B" opacity="1.000000" stroke="none" 
	d="
M274.640076,88.290833 
	C274.534760,88.056175 274.663757,87.717270 275.085388,87.346420 
	C275.210144,87.605179 275.042267,87.895882 274.640076,88.290833 
z"/>
<path fill="#2ED46B" opacity="1.000000" stroke="none" 
	d="
M275.575256,87.210999 
	C275.442139,87.000153 275.548950,86.658432 275.905273,86.190277 
	C276.041595,86.402611 275.928406,86.741364 275.575256,87.210999 
z"/>
<path fill="#2ED46B" opacity="1.000000" stroke="none" 
	d="
M272.405731,71.577324 
	C272.208313,71.731621 271.821960,71.633911 271.226410,71.318588 
	C271.417084,71.175743 271.816925,71.250526 272.405731,71.577324 
z"/>
<path fill="#2ED46B" opacity="1.000000" stroke="none" 
	d="
M274.136719,72.561317 
	C273.929352,72.676598 273.602997,72.534927 273.132629,72.161560 
	C273.331665,72.054695 273.674683,72.179527 274.136719,72.561317 
z"/>
<path fill="#2ED46B" opacity="1.000000" stroke="none" 
	d="
M275.210815,73.617554 
	C274.999176,73.686485 274.669708,73.492004 274.244415,73.016663 
	C274.463379,72.941910 274.778198,73.148026 275.210815,73.617554 
z"/>
<path fill="#F8F4E8" opacity="1.000000" stroke="none" 
	d="
M50.262085,96.908607 
	C51.375557,91.896828 49.912819,87.659409 48.356155,82.997719 
	C44.321941,70.916595 52.422680,57.712982 64.729057,55.128551 
	C77.714790,52.401455 90.521660,60.970345 92.034454,73.398193 
	C93.710747,87.169304 84.203484,98.435417 70.589417,99.066101 
	C67.551727,99.206825 64.620750,99.564461 61.973167,97.724335 
	C58.361050,95.213844 54.569450,96.527252 50.262085,96.908607 
z"/>
<path fill="#F8F4E8" opacity="1.000000" stroke="none" 
	d="
M49.965446,96.963631 
	C49.652096,97.647797 49.469379,97.508163 49.574959,96.779831 
	C49.719185,96.684296 49.882355,96.871414 49.965446,96.963631 
z"/>
<path fill="#EFF3E3" opacity="1.000000" stroke="none" 
	d="
M221.020020,78.390831 
	C221.851547,75.839111 222.614609,73.689026 223.549149,71.055725 
	C225.279999,74.010323 226.853073,76.606659 226.242935,79.701530 
	C226.186554,79.987534 222.414139,81.323456 221.020020,78.390831 
z"/>
<path fill="#EFF3E3" opacity="1.000000" stroke="none" 
	d="
M251.683289,79.319801 
	C251.790787,80.031830 251.838516,80.361710 251.837479,80.691452 
	C251.826599,84.124153 249.943924,86.180199 246.900330,87.372948 
	C245.030060,88.105881 244.795029,86.149971 244.117844,85.388145 
	C241.915131,82.910103 242.042679,79.915619 243.276672,77.011017 
	C244.000061,75.308289 245.559158,74.683960 247.352371,74.764503 
	C249.991364,74.883041 250.955109,76.761139 251.683289,79.319801 
z"/>
<path fill="#F0F3E4" opacity="1.000000" stroke="none" 
	d="
M266.161621,87.856453 
	C266.385468,85.854065 264.272430,85.310020 263.775208,83.653801 
	C262.776947,80.328537 262.763062,77.253128 265.925690,75.259583 
	C267.718231,74.129646 269.948273,74.414261 271.216278,76.434654 
	C273.171539,79.550110 273.183044,82.805634 270.682465,85.620262 
	C269.766052,86.651772 268.171906,87.081146 266.547180,87.758087 
	C266.207458,87.730980 266.062622,87.928574 266.161621,87.856453 
z"/>
<path fill="#EFF3E3" opacity="1.000000" stroke="none" 
	d="
M173.962570,84.951981 
	C172.868912,86.303055 171.615433,87.336693 169.363708,87.212265 
	C167.505493,86.780685 166.137802,86.096382 166.701538,84.184303 
	C167.263550,82.278061 168.944168,81.931282 170.643845,81.912025 
	C171.913681,81.897644 174.071411,79.945473 174.047745,83.645432 
	C174.170975,84.189972 174.253342,84.367874 174.133270,84.759064 
	C173.930817,84.972343 173.980026,84.970879 173.962570,84.951981 
z"/>
<path fill="#23D468" opacity="1.000000" stroke="none" 
	d="
M174.100082,84.904808 
	C173.930817,84.972343 173.929382,84.479019 174.009003,84.245544 
	C174.226212,84.195389 174.380295,84.369904 174.487274,84.569618 
	C174.508209,84.608704 174.346710,84.745522 174.100082,84.904808 
z"/>
<path fill="#27D468" opacity="1.000000" stroke="none" 
	d="
M56.826721,73.932785 
	C56.579868,73.257988 56.403458,72.957054 56.348431,72.635353 
	C55.844887,69.691742 56.094666,67.056648 59.098392,65.405571 
	C60.399261,64.690514 61.404968,64.571320 62.463387,65.850677 
	C64.446068,68.247223 66.319267,70.654526 63.805923,73.706619 
	C62.735386,75.006615 63.502102,75.820374 64.141121,76.767761 
	C65.656799,79.014877 67.745361,80.610832 69.921852,82.197136 
	C73.054901,84.480621 74.325211,81.600174 76.577103,80.628883 
	C78.772804,79.681831 82.087769,81.412476 83.195564,83.764206 
	C84.024025,85.522949 82.309891,87.772484 80.404549,88.861961 
	C78.634613,89.874016 76.682182,89.920959 74.607697,89.349228 
	C66.347488,87.072678 60.722271,81.795326 56.826721,73.932785 
z"/>
</svg>